<svg width="20" height="20" viewBox="0 0 20 20" fill="none" xmlns="http://www.w3.org/2000/svg">
<path fill-rule="evenodd" clip-rule="evenodd" d="M3.25 5.39407C3.25 3.45064 4.72314 1.75 6.66667 1.75H13.3264C15.2703 1.75 16.7416 3.45042 16.75 5.39081L16.75 5.39407L16.75 15.9582C16.75 16.7752 16.4799 17.5594 15.8219 17.98C15.1404 18.4156 14.3237 18.2867 13.6297 17.8673C13.6295 17.8673 13.6298 17.8674 13.6297 17.8673L10.252 15.8317C10.222 15.8131 10.1341 15.7803 10.0026 15.7803C9.87173 15.7803 9.77904 15.8129 9.7424 15.835L6.36987 17.8676L6.36746 17.8691C5.67229 18.2845 4.85726 18.4084 4.17812 17.9743C3.52127 17.5545 3.25 16.7734 3.25 15.9582V5.39407ZM6.66667 3.25C5.66719 3.25 4.75 4.15852 4.75 5.39407V15.9582C4.75 16.4925 4.92432 16.6711 4.98595 16.7105C5.02526 16.7356 5.2013 16.8182 5.59689 16.5821C5.59726 16.5819 5.59763 16.5817 5.598 16.5814L8.96571 14.5518C8.96585 14.5517 8.96558 14.5519 8.96571 14.5518C9.28822 14.3567 9.66554 14.2803 10.0026 14.2803C10.3377 14.2803 10.7145 14.3557 11.0359 14.5528L14.4044 16.5829C14.8018 16.8231 14.9772 16.7396 15.014 16.7161C15.0745 16.6774 15.25 16.4982 15.25 15.9582V5.39588C15.2439 4.15804 14.3252 3.25 13.3264 3.25H6.66667Z" fill="#343739"/>
</svg>
