<svg width="20" height="20" viewBox="0 0 20 20" fill="none" xmlns="http://www.w3.org/2000/svg">
<path fill-rule="evenodd" clip-rule="evenodd" d="M13.6986 4.27398C12.6032 3.17855 10.9336 3.17696 9.96769 4.14284L4.65654 9.45398C3.03883 11.0717 3.06978 13.8275 4.85325 15.611C6.63672 17.3944 9.39253 17.4254 11.0102 15.8077L16.3214 10.4965C16.631 10.1869 17.133 10.1869 17.4426 10.4965C17.7523 10.8062 17.7523 11.3082 17.4426 11.6178L12.1315 16.9289C9.83818 19.2222 6.07684 19.077 3.73201 16.7322C1.38719 14.3874 1.242 10.626 3.5353 8.33274L8.84645 3.02159C10.4879 1.38012 13.1631 1.49596 14.8198 3.15273C16.4766 4.80951 16.5925 7.48466 14.951 9.12613L9.63984 14.4373C8.65021 15.4269 7.06125 15.3404 6.09252 14.3717C5.12379 13.403 5.03732 11.814 6.02695 10.8244L11.3381 5.51324C11.6477 5.20362 12.1497 5.20362 12.4593 5.51324C12.769 5.82286 12.769 6.32486 12.4593 6.63448L7.14819 11.9456C6.83415 12.2597 6.80639 12.8431 7.21376 13.2505C7.62114 13.6578 8.20456 13.6301 8.5186 13.316L13.8297 8.00489C14.7956 7.03901 14.794 5.3694 13.6986 4.27398Z" fill="#343739"/>
</svg>
